<?xml version="1.0" encoding="utf-8"?>
<!-- Generator: Adobe Illustrator 16.0.0, SVG Export Plug-In . SVG Version: 6.00 Build 0)  -->
<!DOCTYPE svg PUBLIC "-//W3C//DTD SVG 1.1//EN" "http://www.w3.org/Graphics/SVG/1.1/DTD/svg11.dtd">
<svg version="1.1" id="Calque_1" xmlns="http://www.w3.org/2000/svg" xmlns:xlink="http://www.w3.org/1999/xlink" x="0px" y="0px"
	 width="200px" height="200px" viewBox="0 0 200 200" enable-background="new 0 0 200 200" xml:space="preserve">
<rect fill="#00A99D" width="200" height="200"/>
<g opacity="0.4">
	
		<linearGradient id="SVGID_1_" gradientUnits="userSpaceOnUse" x1="-36.9053" y1="146.6895" x2="182.8427" y2="146.6895" gradientTransform="matrix(-0.3894 -0.5325 1.1307 -0.827 5.0707 313.4512)">
		<stop  offset="0" style="stop-color:#000000;stop-opacity:0.05"/>
		<stop  offset="1" style="stop-color:#000000;stop-opacity:0.4"/>
	</linearGradient>
	<path fill="url(#SVGID_1_)" d="M160.934,50.236l39.069,53.553L200,200l-117.085,0.002l-44.101-60.449
		c0,0,51.214,52.39,103.855,14.447C190.783,119.317,160.934,50.236,160.934,50.236z"/>
	
		<linearGradient id="SVGID_2_" gradientUnits="userSpaceOnUse" x1="165.3076" y1="236.4775" x2="298.5687" y2="236.4775" gradientTransform="matrix(-0.2385 -0.3288 0.1211 -0.0878 108.8685 180.4006)">
		<stop  offset="0" style="stop-color:#000000;stop-opacity:0.05"/>
		<stop  offset="1" style="stop-color:#000000;stop-opacity:0.4"/>
	</linearGradient>
	<polygon fill="url(#SVGID_2_)" points="72.03,57.78 103.404,101.031 92.384,109.026 71.801,80.652 67.773,68.689 68.042,60.287 	
		"/>
	<g>
		<defs>
			<ellipse id="SVGID_3_" cx="99.889" cy="95.416" rx="75.648" ry="76.361"/>
		</defs>
		<clipPath id="SVGID_4_">
			<use xlink:href="#SVGID_3_"  overflow="visible"/>
		</clipPath>
		
			<linearGradient id="SVGID_5_" gradientUnits="userSpaceOnUse" x1="-57.8345" y1="146.7012" x2="286.5229" y2="146.7012" gradientTransform="matrix(-0.3894 -0.5325 1.1307 -0.827 5.0707 313.4512)">
			<stop  offset="0" style="stop-color:#000000;stop-opacity:0.05"/>
			<stop  offset="1" style="stop-color:#000000;stop-opacity:0.4"/>
		</linearGradient>
		<path clip-path="url(#SVGID_4_)" fill="url(#SVGID_5_)" d="M163.934,54.237l89.744,123.015L131.561,266.57L41.814,143.553
			c0,0-36.56-64.626,16.081-102.569C106.01,6.301,163.934,54.237,163.934,54.237z"/>
		
			<linearGradient id="SVGID_6_" gradientUnits="userSpaceOnUse" x1="120.707" y1="280.2305" x2="266.411" y2="280.2305" gradientTransform="matrix(-0.7575 -1.0443 0.9886 -0.7171 26.5557 579.0717)">
			<stop  offset="0" style="stop-color:#000000;stop-opacity:0.05"/>
			<stop  offset="1" style="stop-color:#000000;stop-opacity:0.4"/>
		</linearGradient>
		<polygon clip-path="url(#SVGID_4_)" fill="url(#SVGID_6_)" points="141.566,71.333 150.095,71.87 256.495,218.548 
			166.534,283.808 101.158,193.684 103.557,144.666 		"/>
		
			<linearGradient id="SVGID_7_" gradientUnits="userSpaceOnUse" x1="67.4956" y1="101.6396" x2="200.7527" y2="101.6396" gradientTransform="matrix(-0.2385 -0.3288 0.1211 -0.0878 108.8685 180.4006)">
			<stop  offset="0" style="stop-color:#000000;stop-opacity:0.05"/>
			<stop  offset="1" style="stop-color:#000000;stop-opacity:0.4"/>
		</linearGradient>
		<polygon clip-path="url(#SVGID_4_)" fill="url(#SVGID_7_)" points="79.03,101.779 110.404,145.031 99.384,153.026 78.801,124.652 
			74.773,112.689 75.042,104.287 		"/>
		
			<linearGradient id="SVGID_8_" gradientUnits="userSpaceOnUse" x1="130.4033" y1="261.7197" x2="276.0995" y2="261.7197" gradientTransform="matrix(-0.184 -0.2537 0.4048 -0.2936 47.3072 230.6648)">
			<stop  offset="0" style="stop-color:#000000;stop-opacity:0.05"/>
			<stop  offset="1" style="stop-color:#000000;stop-opacity:0.4"/>
		</linearGradient>
		<polygon clip-path="url(#SVGID_4_)" fill="url(#SVGID_8_)" points="118.716,72.049 124.013,74.756 133.219,87.447 119.45,127.523 
			110.683,133.885 88.19,102.163 		"/>
		
			<linearGradient id="SVGID_9_" gradientUnits="userSpaceOnUse" x1="179.7256" y1="239.627" x2="308.3801" y2="239.627" gradientTransform="matrix(-0.184 -0.2537 0.4048 -0.2936 47.3072 230.6648)">
			<stop  offset="0" style="stop-color:#000000;stop-opacity:0.05"/>
			<stop  offset="1" style="stop-color:#000000;stop-opacity:0.4"/>
		</linearGradient>
		<polygon clip-path="url(#SVGID_4_)" fill="url(#SVGID_9_)" points="100,75.333 106.013,68.756 115.219,81.447 101.45,121.523 
			92.683,127.885 		"/>
	</g>
</g>
<g>
	<path fill="#FFFFFF" d="M175.537,95.62c0-42.217-33.936-76.564-75.648-76.564S24.24,53.402,24.24,95.62
		c0,39.866,30.265,72.696,68.76,76.232V200h14v-28.166C145.389,168.193,175.537,135.409,175.537,95.62z M107,161.785v-0.726
		l0.26,0.123l42.514-89.652l-12.65-5.999L107,129.057v-15.544l18.128-38.228l-12.65-5.999L107,80.837V69H93v20.428L72.814,57.289
		l-11.856,7.447L93,115.751v8.861l-14.148-22.525l-11.855,7.447l25.912,41.254L93,150.73v11.084
		c-32.973-3.503-58.76-31.852-58.76-66.195c0-36.704,29.449-66.564,65.648-66.564c36.198,0,65.648,29.86,65.648,66.564
		C165.537,129.886,139.865,158.179,107,161.785z"/>
</g>
</svg>
